HIERARCHY
ROOT root
{
	OFFSET 0.000000 0.000000 0.000000
	CHANNELS 6 Xposition Yposition Zposition Zrotation Yrotation Xrotation
	JOINT lhip
	{
		OFFSET 0.058581 -0.082280 -0.017664
		CHANNELS 3 Zrotation Yrotation Xrotation
		JOINT lknee
		{
			OFFSET 0.043451 -0.386469 0.008037
			CHANNELS 3 Zrotation Yrotation Xrotation
			JOINT lankle
			{
				OFFSET -0.014790 -0.426874 -0.037428
				CHANNELS 3 Zrotation Yrotation Xrotation
				JOINT ltoe
				{
					OFFSET 0.041054 -0.060286 0.122042
					CHANNELS 3 Zrotation Yrotation Xrotation
					End Site
					{
						OFFSET 0.000000 0.000000 0.000000
					}
				}
			}
		}
	}
	JOINT rhip
	{
		OFFSET -0.060310 -0.090513 -0.013543
		CHANNELS 3 Zrotation Yrotation Xrotation
		JOINT rknee
		{
			OFFSET -0.043257 -0.383688 -0.004843
			CHANNELS 3 Zrotation Yrotation Xrotation
			JOINT rankle
			{
				OFFSET 0.019056 -0.420046 -0.034562
				CHANNELS 3 Zrotation Yrotation Xrotation
				JOINT rtoe
				{
					OFFSET -0.034840 -0.062106 0.130323
					CHANNELS 3 Zrotation Yrotation Xrotation
					End Site
					{
						OFFSET 0.000000 0.000000 0.000000
					}
				}
			}
		}
	}
	JOINT lowerback
	{
		OFFSET 0.004439 0.124404 -0.038385
		CHANNELS 3 Zrotation Yrotation Xrotation
		JOINT upperback
		{
			OFFSET 0.004488 0.137956 0.026820
			CHANNELS 3 Zrotation Yrotation Xrotation
			JOINT chest
			{
				OFFSET -0.002265 0.056032 0.002855
				CHANNELS 3 Zrotation Yrotation Xrotation
				JOINT lowerneck
				{
					OFFSET -0.013390 0.211636 -0.033468
					CHANNELS 3 Zrotation Yrotation Xrotation
					JOINT upperneck
					{
						OFFSET 0.010113 0.088937 0.050410
						CHANNELS 3 Zrotation Yrotation Xrotation
						End Site
						{
							OFFSET 0.000000 0.000000 0.000000
						}
					}
				}
				JOINT lclavicle
				{
					OFFSET 0.071702 0.114000 -0.018898
					CHANNELS 3 Zrotation Yrotation Xrotation
					JOINT lshoulder
					{
						OFFSET 0.122921 0.045205 -0.019046
						CHANNELS 3 Zrotation Yrotation Xrotation
						JOINT lelbow
						{
							OFFSET 0.255332 -0.015649 -0.022946
							CHANNELS 3 Zrotation Yrotation Xrotation
							JOINT lwrist
							{
								OFFSET 0.265709 0.012698 -0.007375
								CHANNELS 3 Zrotation Yrotation Xrotation
								End Site
								{
									OFFSET 0.000000 0.000000 0.000000
								}
							}
						}
					}
				}
				JOINT rclavicle
				{
					OFFSET -0.082954 0.112472 -0.023707
					CHANNELS 3 Zrotation Yrotation Xrotation
					JOINT rshoulder
					{
						OFFSET -0.113228 0.046853 -0.008472
						CHANNELS 3 Zrotation Yrotation Xrotation
						JOINT relbow
						{
							OFFSET -0.260127 -0.014369 -0.031269
							CHANNELS 3 Zrotation Yrotation Xrotation
							JOINT rwrist
							{
								OFFSET -0.269108 0.006794 -0.006027
								CHANNELS 3 Zrotation Yrotation Xrotation
								End Site
								{
									OFFSET 0.000000 0.000000 0.000000
								}
							}
						}
					}
				}
			}
		}
	}
}
MOTION
Frames: 13
Frame Time: 0.033333
-0.071938 0.233269 0.985049 87.478138 0.787555 99.996205 7.333784 -0.307127 -31.329859 -3.689007 -0.515084 28.055600 -2.190689 6.549122 -8.785220 0.000000 -0.000000 0.000000 -3.950750 1.990010 -32.861619 -2.687421 0.709806 29.183905 4.225129 -3.379938 -8.446326 0.000000 -0.000000 0.000000 0.203464 0.551104 39.612543 -2.725748 -2.027850 7.620440 -0.118870 -0.971636 0.473067 -2.233688 -2.375232 -4.863874 8.749689 -3.896904 -6.541154 -27.916635 -14.732673 6.599583 -50.151348 -12.870844 11.045918 34.990117 -61.684063 -21.482984 15.362485 -8.882276 -18.091657 20.233506 19.421225 5.718589 50.599347 14.142480 11.638517 -21.745255 47.003534 -9.639281 -4.622489 6.630083 0.088249 
-0.072225 0.233407 0.983676 87.556345 0.796974 100.049844 7.480122 -0.370525 -31.750062 -3.943363 -0.483721 28.643811 -2.040706 6.678169 -9.007242 0.000000 -0.000000 0.000000 -3.981545 2.003149 -33.356329 -2.658792 0.690433 29.970835 3.973879 -3.442277 -8.697186 0.000000 -0.000000 0.000000 0.345644 0.422505 39.651411 -2.790401 -2.010374 6.960706 -0.168718 -0.970526 0.562228 -2.257249 -2.384319 -5.062968 8.785902 -3.835579 -6.541667 -27.489738 -15.067862 6.640896 -50.323746 -12.599169 11.260565 34.613433 -61.218087 -20.688901 15.637793 -8.423522 -18.584960 19.956576 19.676048 5.736379 50.627660 14.147119 11.424142 -20.861575 45.403896 -8.779437 -4.706606 6.427836 0.104903 
-0.072805 0.233541 0.982282 87.723188 0.668344 100.068665 7.391152 -0.457465 -32.133045 -4.127008 -0.573157 29.134967 -1.915370 6.705607 -9.176248 0.000000 -0.000000 0.000000 -4.096002 1.978909 -33.751077 -2.665673 0.819366 30.664388 3.816215 -3.673464 -9.102493 0.000000 -0.000000 0.000000 0.391565 0.345139 39.647859 -2.778641 -1.986954 6.512590 -0.159875 -1.033066 0.689280 -2.214573 -2.504564 -5.525918 8.766100 -3.773189 -6.487739 -27.276015 -15.101926 6.589242 -50.292362 -12.593497 11.291083 34.244555 -61.104513 -20.315814 15.827741 -8.224492 -18.790460 19.683869 19.744811 5.664156 50.454795 14.140336 11.295459 -20.233620 44.277390 -8.331787 -4.794588 6.309198 0.527091 
-0.073724 0.233633 0.980995 88.101529 0.657182 100.019234 7.442212 -0.487837 -32.493505 -4.445797 -0.816462 29.584007 -1.879849 6.737697 -9.332425 0.000000 -0.000000 0.000000 -4.198229 1.963788 -33.962343 -2.591472 0.707743 31.187373 3.767065 -4.013864 -9.397516 0.000000 -0.000000 0.000000 0.577460 0.123377 39.907258 -2.713917 -1.993786 5.794894 -0.141840 -0.936290 0.734200 -2.236262 -2.707338 -5.839235 8.813826 -3.685078 -6.361421 -27.401945 -15.044374 6.395027 -49.981666 -12.485042 11.400963 33.840647 -61.067004 -20.609791 16.843346 -8.057327 -19.130568 19.811553 19.638637 5.592256 49.605832 13.833060 10.999572 -19.254634 43.581432 -7.783998 -4.687346 6.031158 0.733418 
-0.074434 0.233533 0.980329 88.249727 0.590616 99.911135 7.350144 -0.464894 -32.616043 -4.450391 -0.829089 29.893688 -2.001240 6.700926 -9.404603 0.000000 -0.000000 0.000000 -4.356166 2.157370 -33.950467 -2.671622 0.586493 31.370196 3.703289 -4.277828 -9.670232 0.000000 -0.000000 0.000000 0.579812 -0.006306 40.143199 -2.732137 -1.927169 5.612067 -0.140176 -0.968527 0.617353 -2.088361 -2.628523 -6.129932 8.784666 -3.788774 -6.432245 -27.571796 -14.932513 6.493050 -49.431547 -12.396545 11.069324 34.863160 -61.232874 -20.979773 15.588102 -8.734655 -18.503356 19.946174 19.646353 5.645553 49.162526 13.660135 10.824821 -19.298791 43.526323 -7.850168 -4.592235 6.393987 0.624353 
-0.075477 0.233337 0.980013 88.327193 0.405813 99.826490 7.380681 -0.844937 -32.659045 -4.539188 -0.521180 29.964961 -2.046861 6.752819 -9.381185 0.000000 -0.000000 0.000000 -4.527394 2.163489 -34.109118 -2.701741 0.598704 31.749933 3.739003 -4.245779 -9.894229 0.000000 -0.000000 0.000000 0.509001 0.104161 40.270059 -2.675298 -1.892450 5.611764 -0.089210 -0.978200 0.445414 -1.988133 -2.605390 -6.392379 8.670949 -3.927953 -6.570829 -27.925356 -14.672576 6.392284 -48.765212 -12.359633 10.951523 35.557601 -61.483699 -21.623287 14.582431 -9.458208 -18.188556 20.316716 19.503430 5.714970 48.364800 13.559911 10.650094 -19.634861 43.576852 -8.091836 -4.097324 6.633583 0.847144 
-0.076956 0.232563 0.979497 88.649316 0.516300 99.847904 7.360621 -0.603872 -33.024863 -4.554734 -0.980674 30.292559 -2.082055 6.674649 -9.360549 0.000000 -0.000000 0.000000 -4.298663 2.076940 -34.328725 -2.670546 0.732417 32.028545 3.623781 -4.410035 -10.086368 0.000000 -0.000000 0.000000 0.676327 -0.020564 40.199359 -2.577242 -1.879611 5.585447 -0.073887 -0.979639 0.529449 -1.868879 -2.572117 -6.953464 8.555498 -3.875369 -6.484479 -27.972043 -14.522501 6.166391 -48.342411 -12.447506 10.622021 35.771814 -61.382445 -21.943061 15.177957 -8.868442 -17.905969 20.461821 19.347749 5.456055 47.936165 13.596700 10.490649 -19.925674 43.758097 -8.556960 -4.341157 6.470398 0.999873 
-0.077877 0.231867 0.979204 88.700860 0.475758 99.735031 7.384012 -0.740808 -32.980294 -4.534926 -1.000766 30.281770 -2.068325 6.669906 -9.307182 0.000000 -0.000000 0.000000 -4.310712 2.094655 -34.377677 -2.583574 0.773332 32.197342 3.570149 -4.367424 -10.141651 0.000000 -0.000000 0.000000 0.641654 0.045073 40.109428 -2.528642 -1.877731 5.828331 -0.044292 -0.990447 0.438126 -1.836280 -2.559635 -7.258921 8.471727 -4.011262 -6.377557 -27.886879 -14.444975 6.052243 -48.228009 -12.600213 10.440970 36.339784 -61.077753 -23.072255 15.570628 -9.088737 -18.093601 20.546583 19.314509 5.355674 47.666532 13.832984 10.378385 -20.354635 43.688588 -9.037841 -4.379017 6.608359 1.126894 
-0.078748 0.231124 0.979129 88.643792 0.459048 99.749820 7.343668 -0.663857 -33.030814 -4.442676 -1.077460 30.237000 -2.065398 6.657710 -9.289398 0.000000 -0.000000 0.000000 -4.255371 1.971666 -34.561091 -2.576249 0.711826 32.396725 3.618829 -4.216280 -10.070440 0.000000 -0.000000 0.000000 0.598128 0.051287 39.993077 -2.559523 -1.841243 5.737607 -0.078955 -0.991311 0.455104 -1.864327 -2.453570 -7.272461 8.421852 -4.009002 -6.341658 -27.813420 -14.337086 6.011218 -48.101793 -12.568283 10.170811 37.204690 -60.793215 -23.614751 15.577935 -9.124486 -17.709694 20.544223 19.285791 5.318961 47.731085 14.013055 10.243056 -20.785907 43.893341 -9.443201 -4.327792 6.668111 0.830055 
-0.079928 0.230111 0.978898 88.605771 0.487755 99.738817 7.449622 -0.642904 -33.117073 -4.472582 -1.121719 30.299071 -2.060988 6.736279 -9.306373 0.000000 -0.000000 0.000000 -4.125071 1.853224 -34.735684 -2.523510 0.740574 32.612785 3.582771 -4.113401 -10.048010 0.000000 -0.000000 0.000000 0.573487 0.128976 39.754163 -2.510215 -1.810401 5.748814 -0.076999 -0.926237 0.451437 -1.854977 -2.259229 -7.295417 8.253553 -3.971465 -6.142033 -27.779783 -14.134810 5.730456 -48.046298 -12.528200 10.097343 36.895009 -60.430896 -23.469421 15.542243 -8.855262 -17.922512 20.540499 19.110779 5.200620 47.715972 14.225563 10.311744 -21.267176 44.328807 -9.757670 -4.149771 6.652614 0.726544 
-0.080683 0.229572 0.978854 88.631154 0.534552 99.724718 7.502536 -0.666352 -33.179139 -4.413384 -1.210122 30.338595 -2.083571 6.738434 -9.250983 0.000000 -0.000000 0.000000 -4.152539 1.956135 -34.714831 -2.433835 0.631612 32.521427 3.569959 -4.116861 -10.090087 0.000000 -0.000000 0.000000 0.622421 0.104930 39.871066 -2.493934 -1.756885 5.470650 -0.074217 -0.937829 0.465448 -1.810267 -2.176742 -7.468016 8.228670 -3.931596 -6.051210 -27.919038 -14.026147 5.696115 -47.944977 -12.395942 9.947575 36.911749 -60.344426 -23.758912 15.383225 -8.853788 -17.829158 20.655874 19.090512 5.177364 47.606685 14.157448 10.398574 -21.737842 44.965658 -10.267218 -4.054899 6.630963 0.553100 
-0.081347 0.229130 0.978715 88.604488 0.507720 99.619367 7.499333 -0.735242 -33.111318 -4.383860 -1.278516 30.339704 -2.110676 6.850880 -9.224286 0.000000 -0.000000 0.000000 -4.213566 2.019129 -34.627377 -2.356877 0.601945 32.468769 3.555766 -4.132684 -10.037246 0.000000 -0.000000 0.000000 0.589195 0.142779 39.778037 -2.503390 -1.754930 5.625312 -0.111522 -0.866638 0.508655 -1.715183 -2.118640 -7.597814 8.370773 -4.041720 -6.087341 -27.930384 -14.123862 5.766704 -47.894380 -12.369831 9.918115 37.200266 -60.232072 -24.176255 15.637194 -8.709938 -17.872156 20.749278 19.160422 5.236758 47.530825 14.253451 10.441487 -22.139565 45.461736 -10.527770 -4.368852 6.717105 0.612158 
-0.081784 0.228603 0.978815 88.628646 0.467215 99.587340 7.428817 -0.790125 -33.066475 -4.224490 -1.310499 30.271174 -2.197915 6.829558 -9.104431 0.000000 -0.000000 0.000000 -4.176142 2.041367 -34.564358 -2.455565 0.653735 32.375771 3.500849 -4.149453 -10.020900 0.000000 -0.000000 0.000000 0.543423 0.096705 39.791478 -2.535119 -1.766495 5.641686 -0.088715 -0.876948 0.419096 -1.633282 -2.154099 -7.675511 8.334179 -3.933605 -6.324630 -28.160978 -14.022790 5.785856 -47.781719 -12.214600 9.832662 37.778709 -60.355875 -24.518831 15.608849 -8.720797 -17.591756 20.845481 19.209532 5.285154 47.489281 14.325458 10.512167 -22.233783 45.999202 -10.438791 -4.401189 6.741951 0.391347 
